# xmcd CD database file
#
# Track frame offsets:
#	150
#	17533
#	36975
#	60980
#	87605
#	104695
#	125065
#	141760
#	163928
#	181225
#	200805
#	230648
#	253430
#	268913
#
# Disc length: 3872 seconds
#
# Revision: 0
# Processed by: cddbd v1.5.2PL0 Copyright (c) Steve Scherf et al.
# Submitted via: CDex 1.70beta2
#
DISCID=db0f1e0e
DTITLE=Various Artist - Healing Collection V
DYEAR=1900
DGENRE=New Age
TTITLE0=01-最初から今まで - Jia Peng Fang
TTITLE1=02-東方旅行 - Shao Rong
TTITLE2=03-小夜曲 - Jiang Xiao Qing
TTITLE3=04-月の足跡 - ANNA
TTITLE4=05-森羅 - 梵天
TTITLE5=06-遠方的書信 - Jia Peng Fang
TTITLE6=07-秋雨 - 恩田直幸
TTITLE7=08-伊呂波歌 - 菅井えり
TTITLE8=09-天空 - 城之内ミサ
TTITLE9=10-Sea Breeze - UBUD
TTITLE10=11-Clear Night in Winter - 恩田直幸
TTITLE11=12-Winter Song - 渡辺雅二
TTITLE12=13-砂漠詩行 - Shao Rong
TTITLE13=14-凪ぎ - UBUD
EXTD=
EXTT0=
EXTT1=
EXTT2=
EXTT3=
EXTT4=
EXTT5=
EXTT6=
EXTT7=
EXTT8=
EXTT9=
EXTT10=
EXTT11=
EXTT12=
EXTT13=
PLAYORDER=
